<svg xmlns="http://www.w3.org/2000/svg" xmlns:xlink="http://www.w3.org/1999/xlink" viewBox="0 0 239.82 89.21"><defs><style>.cls-1{fill:#005069;}.cls-2{fill:url(#linear-gradient);}</style><linearGradient id="linear-gradient" x1="11.43" y1="3.09" x2="11.43" y2="86.12" gradientUnits="userSpaceOnUse"><stop offset="0" stop-color="#29caef"/><stop offset="0" stop-color="#00becc"/><stop offset="0.51" stop-color="#37bda4"/><stop offset="0.99" stop-color="#6fbb7b"/></linearGradient></defs><g id="Layer_2" data-name="Layer 2"><g id="Layer_2-2" data-name="Layer 2"><path class="cls-1" d="M72.37,89.21c-19.12,0-33.87-15.69-33.87-33.27C38.5,34.1,52,20.53,69.18,20.53c8.26,0,14.4,3.66,16.76,8.74V0h8c9,0,13.81,4.72,13.81,15.69V53.34C107.77,76.82,98.21,89.21,72.37,89.21ZM71.9,37.88c-6,0-11.1,6.26-11.1,16.17,0,12.74,5.9,17.93,14,17.93,7,0,10.62-5.42,10.62-15.57C85.47,41.89,79.92,37.88,71.9,37.88Zm82-17.23c17.7,0,33.63,13.45,33.63,33.52,0,21.24-12.86,34.93-35.28,34.93-18.53,0-33.64-13.69-33.64-32.81C118.62,34.81,133.49,20.65,153.91,20.65Zm-1.42,17.7c-6.13,0-11.68,6.49-11.68,15.34,0,12.51,5,17.94,12.86,17.94,7.08,0,11.69-6.49,11.69-15.46C165.36,44.49,160.28,38.35,152.49,38.35ZM206.77,11a19.55,19.55,0,0,1,11.69-4.36h2.36V22.42h19v7.91c0,5.54-5.91,9.79-11,9.79h-8V63.61c0,4.36,2.71,7,7.08,7,5.31,0,7.78-.47,10.14-1.42h.6v8.73c0,5.43-5,10.39-16.64,10.39-11.1,0-23-5.31-23-23.13V24.9C199,19,202.41,14.28,206.77,11Z"/><path class="cls-2" d="M0,44.61A11.44,11.44,0,1,1,11.43,56,11.44,11.44,0,0,1,0,44.61ZM11.43,26A11.44,11.44,0,1,0,0,14.52,11.44,11.44,0,0,0,11.43,26Zm0,60.16A11.43,11.43,0,1,0,0,74.69,11.43,11.43,0,0,0,11.43,86.12Z"/></g></g></svg>