<svg width="58" height="58" viewBox="0 0 58 58" fill="none" xmlns="http://www.w3.org/2000/svg">
<path fill-rule="evenodd" clip-rule="evenodd" d="M29 0C30.6324 0 32.2332 0.13487 33.7921 0.394074L0.000366211 28.8502C0.0810045 12.9029 13.0337 0 29 0ZM0.226823 32.6448C0.123391 31.8199 0.0546027 30.9843 0.0219601 30.1394L35.0596 0.63404C35.796 0.79059 36.5221 0.975092 37.2367 1.18638L0.226823 32.6448ZM0.397416 33.8122C2.68975 47.5382 14.6231 58 29 58C45.0162 58 58 45.0163 58 29C58 16.259 49.7835 5.43708 38.3602 1.54379L0.397416 33.8122Z" fill="#364B44" fill-opacity="0.97"/>
<path fill-rule="evenodd" clip-rule="evenodd" d="M19.945 19.2722C19.9927 19.3838 20.0217 19.5011 20.0319 19.624C20.0879 19.96 20.1159 20.492 20.1159 21.22V41.674C20.1159 42.402 20.0879 42.934 20.0319 43.27C19.9759 43.606 19.7939 43.9 19.4859 44.152C19.1779 44.404 18.6599 44.53 17.9319 44.53C17.5679 44.53 17.3159 44.572 17.1759 44.656C17.0639 44.712 16.9939 44.922 16.9659 45.286C16.9659 45.51 17.0219 45.706 17.1339 45.874C17.2459 46.042 17.4139 46.126 17.6379 46.126C19.2899 46.042 20.7459 46 22.0059 46C23.3219 46 24.7919 46.042 26.4159 46.126C26.6119 46.126 26.7659 46.042 26.8779 45.874C27.0179 45.706 27.0879 45.51 27.0879 45.286C27.0599 44.95 26.9899 44.74 26.8779 44.656C26.7659 44.572 26.5839 44.53 26.3319 44.53H26.0799C25.3519 44.53 24.8339 44.404 24.5259 44.152C24.2179 43.9 24.0359 43.606 23.9799 43.27C23.9519 42.934 23.9379 42.402 23.9379 41.674V36.592C24.7779 36.508 25.6039 36.9 26.4159 37.768C26.3599 37.712 26.8079 38.244 27.7599 39.364C30.8119 42.92 32.7579 45.132 33.5979 46C35.8939 46 37.3359 46.014 37.9239 46.042C38.5119 46.098 38.9319 46.126 39.1839 46.126C39.6319 46.126 39.8559 45.846 39.8559 45.286C39.8559 45.034 39.7999 44.852 39.6879 44.74C39.6039 44.628 39.4639 44.572 39.2679 44.572C39.0999 44.544 38.9879 44.53 38.9319 44.53C38.2039 44.474 37.5879 44.264 37.0839 43.9C36.6079 43.536 35.8659 42.822 34.8579 41.758C34.8299 41.702 34.2839 41.086 33.2199 39.91C30.8679 37.306 29.3279 35.514 28.5999 34.534L32.1279 30.922C33.0239 29.998 33.8079 29.354 34.4799 28.99C35.1519 28.626 36.0059 28.444 37.0419 28.444C37.2659 28.444 37.4339 28.402 37.5459 28.318C37.6579 28.234 37.7279 28.024 37.7559 27.688C37.7559 27.464 37.6859 27.268 37.5459 27.1C37.4339 26.932 37.2799 26.848 37.0839 26.848L36.1179 26.89C35.2779 26.946 34.6619 26.974 34.2699 26.974C32.4499 26.974 30.9099 26.932 29.6499 26.848C29.4539 26.848 29.2859 26.932 29.1459 27.1C29.0339 27.268 28.9779 27.464 28.9779 27.688C29.0059 28.136 29.1739 28.388 29.4819 28.444C30.7699 28.36 31.4139 28.528 31.4139 28.948C31.4139 29.144 31.2739 29.396 30.9939 29.704C30.7139 29.984 30.5459 30.166 30.4899 30.25L26.9619 33.862C26.1779 34.646 25.1699 35.164 23.9379 35.416V16.222C23.9379 16.1482 23.9336 16.0795 23.925 16.0159L19.945 19.2722ZM42.3064 43.774C43.9304 45.594 46.1704 46.504 49.0264 46.504C50.4264 46.504 51.8124 46.126 53.1844 45.37C54.5564 44.586 55.7044 43.536 56.6284 42.22C56.7124 42.08 56.7544 41.968 56.7544 41.884C56.7544 41.744 56.7124 41.604 56.6284 41.464C56.5444 41.324 56.4324 41.226 56.2924 41.17C56.1244 41.086 55.9704 41.044 55.8304 41.044C55.6344 41.044 55.4944 41.114 55.4104 41.254C54.7104 42.318 53.9264 43.116 53.0584 43.648C52.2184 44.152 51.1964 44.404 49.9924 44.404C48.2284 44.404 46.8144 43.648 45.7504 42.136C44.6864 40.624 44.1544 38.692 44.1544 36.34C44.1544 33.96 44.5324 31.986 45.2884 30.418C46.0724 28.822 47.5424 28.024 49.6984 28.024C50.5944 28.024 51.3504 28.248 51.9664 28.696C52.6104 29.144 52.9324 29.802 52.9324 30.67C52.9324 31.09 52.8204 31.468 52.5964 31.804C52.4004 32.112 52.1764 32.378 51.9244 32.602C51.6724 32.826 51.5464 32.952 51.5464 32.98C51.5464 33.176 51.7284 33.414 52.0924 33.694C52.4844 33.974 52.9464 34.114 53.4784 34.114C54.3464 34.114 55.0324 33.792 55.5364 33.148C56.0684 32.476 56.3344 31.706 56.3344 30.838C56.3344 29.27 55.6764 28.15 54.3604 27.478C53.0724 26.806 51.5324 26.47 49.7404 26.47C47.9484 26.526 46.3104 26.988 44.8264 27.856C43.3424 28.696 42.1524 29.872 41.2564 31.384C40.3884 32.868 39.9264 34.562 39.8704 36.466C39.8704 39.518 40.6824 41.954 42.3064 43.774Z" fill="#FFFCF8"/>
</svg>
